<?xml version="1.0" standalone="no"?><!-- Generator: Gravit.io --><svg xmlns="http://www.w3.org/2000/svg" xmlns:xlink="http://www.w3.org/1999/xlink" style="isolation:isolate" viewBox="0 0 800 800" width="800" height="800"><defs><clipPath id="_clipPath_davt76Loj44FmjfyVLSlaMRJiH81wfOG"><rect width="800" height="800"/></clipPath></defs><g clip-path="url(#_clipPath_davt76Loj44FmjfyVLSlaMRJiH81wfOG)"><path d=" M 0 400 C 0 179.234 179.234 0 400 0 C 620.766 0 800 179.234 800 400 C 800 620.766 620.766 800 400 800 C 179.234 800 0 620.766 0 400 Z " fill="rgb(255,123,172)"/><path d=" M 714.26 464.82 C 726.04 347.02 671.48 254.02 587.16 198.22 C 594.6 184.58 624.98 134.36 641.72 134.36 C 646.06 134.36 649.78 128.16 641.72 126.3 C 624.36 122.58 592.12 145.52 560.5 182.72 C 496.02 148.62 418.52 134.36 342.26 145.52 C 86.82 182.72 83.1 362.52 191.6 400.34 C 246.16 419.56 313.74 384.84 322.42 323.46 C 324.28 311.68 310.64 311.68 310.02 317.88 C 308.78 339.58 270.96 408.4 197.8 385.46 C 106.04 356.94 158.12 203.8 329.86 167.22 C 406.74 151.1 482.38 165.36 543.14 201.94 C 445.8 310.44 399.3 480.32 307.54 568.36 C 287.7 557.82 236.86 531.16 213.3 522.48 C 73.8 474.12 31.02 620.44 157.5 635.32 C 217.02 642.76 267.24 627.26 312.5 590.68 C 437.74 661.36 695.04 661.98 714.26 464.82 Z  M 675.2 466.06 C 657.84 625.4 447.04 650.82 327.38 579.52 C 335.44 572.7 342.88 565.88 350.94 557.2 C 419.14 484.04 499.74 335.86 572.28 221.78 C 642.34 276.96 685.74 364.38 675.2 466.06 Z  M 291.42 580.76 C 257.32 605.56 217.64 619.82 173 617.96 C 97.36 614.24 107.9 507.6 197.8 538.6 C 235 551.62 261.66 566.5 291.42 580.76 Z " fill-rule="evenodd" fill="rgb(255,255,255)"/></g></svg>