<?xml version="1.0" encoding="UTF-8"?><!DOCTYPE svg PUBLIC "-//W3C//DTD SVG 1.1//EN" "http://www.w3.org/Graphics/SVG/1.1/DTD/svg11.dtd"><svg xmlns="http://www.w3.org/2000/svg" xmlns:xlink="http://www.w3.org/1999/xlink" version="1.1" width="24" height="24" viewBox="0 0 24 24"><path d="M20,19.88V22L18.2,20.83L13.41,11.83C16.14,11.83 15.19,13.56 15.19,10.83M15,7C15,8.66 13.66,10 12,10L5.8,20.83L4,22V19.88L9.79,9C9.79,7.34 10.34,4 12,4V2C12.55,2 13,2.45 13,3V4.18C14.66,4.18 15,5.34 15,7M13,7C12.45,7 12,7.45 12,8C12.55,8 13,7.55 13,7M4.22,10L6,11.8L4.56,14.56L2.1,12.1M12,17.76L10.5,16.25L9,19L12,22L15,19L13.53,16.23M19.78,10L18,11.8L19.5,14.56L21.9,12.1Z" /></svg>