<svg xmlns="http://www.w3.org/2000/svg" viewBox="0 0 371.47 144"><defs><style>.cls-1{fill:#009fdb;}.cls-2{fill:#fff;}</style></defs><title>Asset 1</title><g id="Layer_2" data-name="Layer 2"><g id="Layer_1-2" data-name="Layer 1"><path class="cls-1" d="M108.83,10.15a71.9,71.9,0,0,0-74.17.3c-3.25,2-5.08,3.6-5.08,5.66,0,6.08,14.19,12.6,39.36,12.6,24.91,0,44.23-7.15,44.23-14C113.17,13,111.74,11.89,108.83,10.15Zm10.72,8a2.91,2.91,0,0,1,.45,1.66C120,27.81,95.53,42,56.57,42c-28.62,0-34-10.62-34-17.38a11.68,11.68,0,0,1,3-7.4c.11-.15,0-.21-.11-.09A72.25,72.25,0,0,0,15.3,27.62C13.87,29.43,13,31,13,32c0,14,35.09,24.15,67.91,24.15,35,0,50.57-11.41,50.57-21.45,0-3.59-1.4-5.68-5-9.74a84.6,84.6,0,0,0-6.83-6.91C119.55,18,119.47,18,119.55,18.15Zm-112.6,23A71.35,71.35,0,0,0,1.79,56a4.78,4.78,0,0,0,.38,3.49C6.59,68.91,28.92,83.91,81,83.91c31.79,0,56.49-7.81,60.49-22.08a16.94,16.94,0,0,0-.17-9.13,69.72,69.72,0,0,0-4.72-12.45c-.06-.11-.15-.09-.13,0C137.13,59,85,71,58.7,71,30.21,71,6.43,59.68,6.43,45.34a17.38,17.38,0,0,1,.64-4.19C7.11,41,7,41,6.94,41.11Zm50.58,59.75C20.68,100.87,3.3,83.7.15,72c0-.17-.15-.13-.15,0A71.43,71.43,0,0,0,1.08,84.41,14.46,14.46,0,0,0,4.7,90.7C13.62,100,35.87,113,74.4,113c52.49,0,64.49-17.49,66.94-23.24C143.09,85.68,144,78.25,144,72c0-1.51,0-2.72-.09-3.91,0-.19-.11-.21-.15,0C141.13,82.15,96.28,100.87,57.53,100.87Zm19.36,31.68c17.72,0,37.19-4.83,48.83-14.4a38.88,38.88,0,0,0,8.94-10.74,68.61,68.61,0,0,0,4.34-9c.06-.15,0-.23-.15-.06C128,114.3,96.66,124.25,64.28,124.25c-22.89,0-47.51-7.32-57.15-21.3-.09-.13-.19-.08-.13.08C16,122.11,43.23,132.55,76.89,132.55Zm-49-3.68a72,72,0,0,0,91.58-2.72c.15-.13.08-.23-.08-.13-5.68,3.79-21.87,12.08-47.36,12.08-22.15,0-36.15-4.94-44.06-9.36C27.79,128.66,27.74,128.77,27.85,128.87Z"/><path class="cls-2" d="M188,23.66h6.61l15,39.9h-7L199.35,54H183l-3.25,9.52H173Zm-3,24.68h12.37l-6.21-18Z"/><path class="cls-2" d="M217,29.65h-12.6v-6h31.75v6h-12.6V63.56H217Z"/><path class="cls-2" d="M247.57,64.19a13.2,13.2,0,0,1-8.95-2.91,9.67,9.67,0,0,1-3.36-7.69,10.31,10.31,0,0,1,2.22-6.35A19.22,19.22,0,0,1,244.09,42a23.83,23.83,0,0,1-3.85-5,9.58,9.58,0,0,1-1.05-4.45,8.61,8.61,0,0,1,3.11-6.87,13.58,13.58,0,0,1,15.84-.2,8,8,0,0,1,2.94,6.5q0,5.76-8.89,10.54l7.41,7.81a41.23,41.23,0,0,0,2.28-3.76l2.34-4.39h5.93l-3.36,6.16q-1.31,2.45-3.42,5.59l9.4,9.63h-7.64l-5.19-5.3a17.13,17.13,0,0,1-5.59,4.47A15.44,15.44,0,0,1,247.57,64.19Zm.74-5.13q4.62,0,8-4.22l-9.06-9.46a15.73,15.73,0,0,0-4.36,3.68,6.54,6.54,0,0,0-1.4,4,5.53,5.53,0,0,0,1.85,4.33A7.21,7.21,0,0,0,248.31,59.06ZM245,32.38a5.68,5.68,0,0,0,.77,2.88,25.77,25.77,0,0,0,3.28,4,19.72,19.72,0,0,0,4.76-3.59,5.15,5.15,0,0,0,1.45-3.42,4,4,0,0,0-1.34-3.13,5.15,5.15,0,0,0-3.56-1.2,5.89,5.89,0,0,0-3.88,1.23A4,4,0,0,0,245,32.38Z"/><path class="cls-2" d="M280.57,29.65H268v-6h31.75v6h-12.6V63.56h-6.55Z"/><path class="cls-2" d="M177,80.46h13.79q5.87,0,9,2.7T202.88,91a9.33,9.33,0,0,1-1.77,5.55,9.15,9.15,0,0,1-4.67,3.44,9,9,0,0,1,5.58,3.2,10.05,10.05,0,0,1,2,6.45,10.51,10.51,0,0,1-1.54,5.71,9.86,9.86,0,0,1-4.27,3.74,14.72,14.72,0,0,1-6.33,1.28H177Zm3,2.74V98.87h10.83a9.82,9.82,0,0,0,6.7-2.08A7.3,7.3,0,0,0,199.81,91a7.2,7.2,0,0,0-2.37-5.79,10,10,0,0,0-6.7-2Zm0,18.41v16h12a9.75,9.75,0,0,0,6.67-2.11,7.48,7.48,0,0,0,2.39-5.93q0-8-10.2-8Z"/><path class="cls-2" d="M232,90.95v29.41h-2.34l-.46-3.65a16.83,16.83,0,0,1-10.72,4.22q-4.9,0-7.41-2.94t-2.51-8.69V90.95h2.85V109q0,9.23,7.75,9.23,5.07,0,10-4.16V90.95Z"/><path class="cls-2" d="M246,120.93a20.62,20.62,0,0,1-5.39-.66,18.3,18.3,0,0,1-4.76-2.08l1-2.34a19,19,0,0,0,9,2.51,9.57,9.57,0,0,0,5.7-1.45,4.81,4.81,0,0,0,2-4.13,4.45,4.45,0,0,0-1.57-3.56,16.09,16.09,0,0,0-5.56-2.54l-1.54-.46q-4.45-1.31-6.3-3.16a6.66,6.66,0,0,1-1.85-4.93,6.89,6.89,0,0,1,2.65-5.59,10.42,10.42,0,0,1,6.81-2.17,18.89,18.89,0,0,1,9.35,2.45l-.91,2.28a18,18,0,0,0-8.49-2.17,7.52,7.52,0,0,0-4.73,1.37A4.38,4.38,0,0,0,239.59,98a4.63,4.63,0,0,0,.6,2.42,5.41,5.41,0,0,0,1.94,1.8,16.19,16.19,0,0,0,3.68,1.48l1.54.46q5,1.43,7,3.33a6.71,6.71,0,0,1,2.05,5.16,7.36,7.36,0,0,1-2.82,6.07A11.86,11.86,0,0,1,246,120.93Z"/><path class="cls-2" d="M260.67,81.55a2,2,0,0,1,.6-1.48,2.44,2.44,0,0,1,3.13,0,2.13,2.13,0,0,1,0,3,2.44,2.44,0,0,1-3.13,0A2,2,0,0,1,260.67,81.55Zm.74,9.4h2.85v29.41h-2.85Z"/><path class="cls-2" d="M271,120.36V90.95h2.34l.4,3.65a17.34,17.34,0,0,1,10.89-4.22q4.9,0,7.44,2.94t2.54,8.69v18.35h-2.85V102.29q0-9.23-7.81-9.23a15.2,15.2,0,0,0-10.09,4.16v23.14Z"/><path class="cls-2" d="M312.88,120.93a14.29,14.29,0,0,1-7.64-2,13.25,13.25,0,0,1-5-5.44,18.51,18.51,0,0,1,.09-15.84,13.51,13.51,0,0,1,4.84-5.39,12.27,12.27,0,0,1,6.61-1.88,11.76,11.76,0,0,1,6.47,1.77A11.58,11.58,0,0,1,322.51,97a15.84,15.84,0,0,1,1.48,7q0,1.25-.11,2.51H301.43a13.91,13.91,0,0,0,1.71,6.3,10.86,10.86,0,0,0,4.08,4.16,11.2,11.2,0,0,0,5.67,1.45,19.65,19.65,0,0,0,5-.54,18,18,0,0,0,4.33-1.85l1,2.17a17.33,17.33,0,0,1-4.76,2.14A21.37,21.37,0,0,1,312.88,120.93Zm-1.08-28a9.1,9.1,0,0,0-5,1.45,10.67,10.67,0,0,0-3.62,4,14.6,14.6,0,0,0-1.65,5.67h19.61v-.46a12.81,12.81,0,0,0-1.2-5.59,8.72,8.72,0,0,0-3.28-3.79A9,9,0,0,0,311.8,92.94Z"/><path class="cls-2" d="M337.5,120.93a20.62,20.62,0,0,1-5.39-.66,18.3,18.3,0,0,1-4.76-2.08l1-2.34a19,19,0,0,0,9,2.51,9.57,9.57,0,0,0,5.7-1.45,4.81,4.81,0,0,0,2-4.13,4.45,4.45,0,0,0-1.57-3.56,16.09,16.09,0,0,0-5.56-2.54l-1.54-.46q-4.45-1.31-6.3-3.16a6.66,6.66,0,0,1-1.85-4.93,6.89,6.89,0,0,1,2.65-5.59,10.42,10.42,0,0,1,6.81-2.17A18.89,18.89,0,0,1,347,92.83l-.91,2.28a18,18,0,0,0-8.49-2.17,7.52,7.52,0,0,0-4.73,1.37A4.38,4.38,0,0,0,331.12,98a4.63,4.63,0,0,0,.6,2.42,5.41,5.41,0,0,0,1.94,1.8,16.19,16.19,0,0,0,3.68,1.48l1.54.46q5,1.43,7,3.33a6.71,6.71,0,0,1,2.05,5.16,7.36,7.36,0,0,1-2.82,6.07A11.86,11.86,0,0,1,337.5,120.93Z"/><path class="cls-2" d="M361,120.93a20.62,20.62,0,0,1-5.39-.66,18.3,18.3,0,0,1-4.76-2.08l1-2.34a19,19,0,0,0,9,2.51,9.57,9.57,0,0,0,5.7-1.45,4.81,4.81,0,0,0,2-4.13,4.45,4.45,0,0,0-1.57-3.56,16.09,16.09,0,0,0-5.56-2.54l-1.54-.46q-4.45-1.31-6.3-3.16a6.66,6.66,0,0,1-1.85-4.93,6.89,6.89,0,0,1,2.65-5.59,10.42,10.42,0,0,1,6.81-2.17,18.89,18.89,0,0,1,9.35,2.45l-.91,2.28a18,18,0,0,0-8.49-2.17,7.52,7.52,0,0,0-4.73,1.37A4.38,4.38,0,0,0,354.66,98a4.63,4.63,0,0,0,.6,2.42,5.41,5.41,0,0,0,1.94,1.8,16.19,16.19,0,0,0,3.68,1.48l1.54.46q5,1.43,7,3.33a6.71,6.71,0,0,1,2.05,5.16,7.36,7.36,0,0,1-2.82,6.07A11.86,11.86,0,0,1,361,120.93Z"/></g></g></svg>