<?xml version="1.0" standalone="no"?>
<!DOCTYPE svg PUBLIC "-//W3C//DTD SVG 20010904//EN"
 "http://www.w3.org/TR/2001/REC-SVG-20010904/DTD/svg10.dtd">
<svg version="1.0" xmlns="http://www.w3.org/2000/svg"
 width="1600.000000pt" height="1600.000000pt" viewBox="0 0 1600.000000 1600.000000"
 preserveAspectRatio="xMidYMid meet">
<metadata>
Created by potrace 1.11, written by Peter Selinger 2001-2013
</metadata>
<g transform="translate(0.000000,1600.000000) scale(0.100000,-0.100000)"
fill="#000000" stroke="none">
<path d="M2795 15993 c-33 -2 -114 -10 -180 -19 -702 -92 -1333 -418 -1816
-939 -433 -467 -698 -1042 -781 -1695 -19 -156 -19 -10524 0 -10680 107 -841
522 -1561 1187 -2060 419 -314 868 -497 1415 -577 120 -17 351 -18 5380 -18
5039 0 5260 1 5380 18 686 101 1248 375 1719 840 499 491 793 1091 883 1797
20 157 19 10525 0 10680 -109 845 -522 1562 -1187 2060 -410 307 -830 481
-1380 573 l-130 21 -5215 1 c-2868 1 -5242 0 -5275 -2z m-155 -5488 c6 -3415
-1 -3105 75 -3400 165 -646 631 -1092 1287 -1234 198 -43 291 -53 545 -58 276
-6 398 3 604 43 381 74 671 218 905 449 275 271 418 572 501 1050 16 93 18
319 23 3155 l5 3055 565 0 565 0 3 -862 2 -863 1818 0 c1128 0 1878 -4 1977
-10 855 -55 1503 -286 2025 -722 624 -522 940 -1243 940 -2144 0 -645 -143
-1188 -427 -1619 -94 -142 -156 -219 -272 -338 -434 -446 -1033 -724 -1791
-833 -336 -48 -321 -47 -1707 -51 l-1323 -4 -2 -1842 -3 -1842 -617 -3 -618
-2 -2 2577 c-1 1418 -3 2558 -5 2533 -66 -855 -398 -1517 -1003 -2000 -449
-357 -994 -561 -1700 -636 -208 -22 -639 -22 -850 0 -784 82 -1377 337 -1853
796 -213 205 -364 413 -497 685 -158 322 -247 664 -280 1069 -6 85 -10 1145
-10 3123 l0 2993 558 -2 557 -3 5 -3060z"/>
<path d="M8960 8975 l0 -1846 1253 4 c1344 4 1338 3 1610 58 405 80 712 233
952 474 312 311 465 733 465 1280 0 428 -97 778 -298 1080 -97 146 -302 348
-452 448 -258 171 -529 268 -900 323 -103 16 -245 18 -1372 21 l-1258 4 0
-1846z"/>
</g>
</svg>
